<svg width="22" height="22" viewBox="0 0 22 22" fill="none" xmlns="http://www.w3.org/2000/svg">
<path d="M8.93736 12.0313C8.93736 12.2352 8.87688 12.4346 8.76356 12.6042C8.65025 12.7738 8.48919 12.9059 8.30075 12.984C8.11232 13.0621 7.90497 13.0825 7.70492 13.0427C7.50488 13.0029 7.32113 12.9047 7.17691 12.7605C7.03268 12.6162 6.93447 12.4325 6.89468 12.2324C6.85488 12.0324 6.87531 11.825 6.95336 11.6366C7.03141 11.4482 7.16359 11.2871 7.33318 11.1738C7.50277 11.0605 7.70215 11 7.90611 11C8.17962 11 8.44192 11.1087 8.63531 11.302C8.82871 11.4954 8.93736 11.7577 8.93736 12.0313ZM14.0936 11C13.8896 11 13.6903 11.0605 13.5207 11.1738C13.3511 11.2871 13.2189 11.4482 13.1409 11.6366C13.0628 11.825 13.0424 12.0324 13.0822 12.2324C13.122 12.4325 13.2202 12.6162 13.3644 12.7605C13.5086 12.9047 13.6924 13.0029 13.8924 13.0427C14.0925 13.0825 14.2998 13.0621 14.4883 12.984C14.6767 12.9059 14.8377 12.7738 14.9511 12.6042C15.0644 12.4346 15.1249 12.2352 15.1249 12.0313C15.1249 11.7577 15.0162 11.4954 14.8228 11.302C14.6294 11.1087 14.3671 11 14.0936 11ZM20.4917 16.5773L14.7338 19.1305C14.5607 19.2075 14.3737 19.2483 14.1842 19.2503C13.9948 19.2523 13.8069 19.2156 13.6322 19.1423C13.4574 19.0691 13.2995 18.9609 13.1681 18.8244C13.0367 18.6879 12.9346 18.5259 12.8681 18.3485L12.1712 16.4579C11.7862 16.4837 11.3957 16.4969 10.9999 16.4974C10.604 16.498 10.2135 16.4848 9.82853 16.4579L9.13158 18.3485C9.06497 18.5259 8.96283 18.6877 8.83143 18.8242C8.70002 18.9606 8.54212 19.0688 8.36742 19.142C8.19271 19.2152 8.00489 19.252 7.81547 19.25C7.62605 19.248 7.43902 19.2074 7.26588 19.1305L1.50806 16.5773C1.21088 16.4474 0.969484 16.2162 0.826891 15.9249C0.684299 15.6335 0.649774 15.301 0.729469 14.9866L3.26549 4.98438C3.33241 4.72425 3.47375 4.48929 3.67217 4.30826C3.8706 4.12723 4.11751 4.008 4.38267 3.96516L7.48158 3.45555C7.8232 3.4006 8.17305 3.47468 8.46309 3.66338C8.75312 3.85207 8.9626 4.1419 9.0508 4.47649L9.33095 5.57992C9.87694 5.52664 10.4332 5.5 10.9999 5.5C11.5665 5.5 12.1222 5.52664 12.667 5.57992L12.9472 4.47649C13.0352 4.1418 13.2447 3.85185 13.5348 3.66313C13.8248 3.4744 14.1748 3.4004 14.5164 3.45555L17.617 3.96516C17.8822 4.008 18.1291 4.12723 18.3275 4.30826C18.526 4.48929 18.6673 4.72425 18.7342 4.98438L21.272 14.9858C21.3518 15.3005 21.3171 15.6334 21.1742 15.9249C21.0312 16.2164 20.7893 16.4477 20.4917 16.5773ZM19.9374 15.3209L17.3996 5.32813C17.3996 5.32813 17.3996 5.32813 17.3928 5.32813L14.2938 4.8125C14.2916 4.81122 14.2891 4.81054 14.2865 4.81054C14.284 4.81054 14.2815 4.81122 14.2792 4.8125L14.036 5.76985C14.4657 5.85063 14.8954 5.94688 15.3105 6.06375C15.4741 6.10547 15.6167 6.20595 15.711 6.34605C15.8053 6.48614 15.8447 6.65605 15.8218 6.82336C15.7989 6.99067 15.7151 7.14369 15.5866 7.25322C15.4581 7.36276 15.2937 7.42115 15.1249 7.41727C15.0621 7.41709 14.9997 7.40842 14.9392 7.39149C13.6553 7.04308 12.3302 6.86936 10.9999 6.875C9.66953 6.86908 8.34447 7.04251 7.06049 7.39063C6.97277 7.41774 6.88052 7.42702 6.78916 7.4179C6.69781 7.40879 6.60921 7.38147 6.52858 7.33755C6.44796 7.29364 6.37695 7.23402 6.31973 7.16222C6.26252 7.09042 6.22027 7.00788 6.19548 6.91949C6.17068 6.83109 6.16384 6.73863 6.17536 6.64754C6.18688 6.55646 6.21652 6.46861 6.26254 6.38917C6.30856 6.30973 6.37003 6.24031 6.44331 6.18501C6.5166 6.12971 6.60022 6.08965 6.68923 6.06719C7.10345 5.95031 7.5297 5.85406 7.96283 5.77328L7.71963 4.8125C7.71963 4.8125 7.71963 4.8125 7.70931 4.8125L4.60697 5.32211C4.60444 5.32142 4.60177 5.32142 4.59924 5.32211L2.06236 15.3252L7.82017 17.875C7.82307 17.8766 7.82632 17.8774 7.82963 17.8774C7.83293 17.8774 7.83618 17.8766 7.83908 17.875L8.42174 16.3041C7.83795 16.2148 7.26 16.0908 6.69095 15.9328C6.52146 15.8787 6.37957 15.7609 6.2951 15.6043C6.21064 15.4477 6.19018 15.2644 6.23803 15.093C6.28588 14.9217 6.39832 14.7755 6.5517 14.6853C6.70508 14.5951 6.88745 14.5679 7.06049 14.6094C8.34439 14.9579 9.66951 15.1313 10.9999 15.125C12.3302 15.1313 13.6553 14.9579 14.9392 14.6094C15.1148 14.5601 15.3028 14.5827 15.4618 14.6721C15.6208 14.7614 15.7378 14.9103 15.787 15.0859C15.8362 15.2615 15.8137 15.4495 15.7243 15.6085C15.635 15.7675 15.4861 15.8844 15.3105 15.9337C14.7409 16.0914 14.1623 16.2151 13.578 16.3041L14.1581 17.875C14.1608 17.8765 14.1639 17.8773 14.1671 17.8773C14.1702 17.8773 14.1733 17.8765 14.1761 17.875L19.9374 15.3209Z" fill="#AEABB2"/>
</svg>
