<svg width="22" height="22" viewBox="0 0 22 22" fill="none" xmlns="http://www.w3.org/2000/svg">
<path d="M16.1562 6.87499C15.7551 6.8744 15.3602 6.97489 15.0081 7.16717C14.8809 6.77309 14.6541 6.4185 14.3497 6.13772C14.0454 5.85694 13.6737 5.65947 13.2706 5.56441C12.8675 5.46935 12.4468 5.47992 12.049 5.59509C11.6512 5.71027 11.2899 5.92615 11 6.22186C10.6654 5.88041 10.2368 5.64634 9.76865 5.54951C9.30053 5.45269 8.81417 5.49748 8.37161 5.6782C7.92905 5.85891 7.55035 6.16734 7.2838 6.56416C7.01725 6.96098 6.87493 7.4282 6.875 7.90624V9.62499H5.84375C5.20557 9.62499 4.59353 9.8785 4.14227 10.3298C3.69102 10.781 3.4375 11.3931 3.4375 12.0312V13.0625C3.4375 15.0682 4.23426 16.9917 5.65251 18.41C7.07075 19.8282 8.9943 20.625 11 20.625C13.0057 20.625 14.9293 19.8282 16.3475 18.41C17.7657 16.9917 18.5625 15.0682 18.5625 13.0625V9.28124C18.5625 8.64306 18.309 8.03102 17.8577 7.57976C17.4065 7.1285 16.7944 6.87499 16.1562 6.87499ZM17.1875 13.0625C17.1875 14.7035 16.5356 16.2773 15.3752 17.4377C14.2148 18.5981 12.641 19.25 11 19.25C9.35897 19.25 7.78516 18.5981 6.62478 17.4377C5.4644 16.2773 4.8125 14.7035 4.8125 13.0625V12.0312C4.8125 11.7577 4.92115 11.4954 5.11455 11.302C5.30794 11.1086 5.57025 11 5.84375 11H6.875V13.0625C6.875 13.2448 6.94743 13.4197 7.07636 13.5486C7.2053 13.6776 7.38016 13.75 7.5625 13.75C7.74484 13.75 7.9197 13.6776 8.04864 13.5486C8.17757 13.4197 8.25 13.2448 8.25 13.0625V7.90624C8.25 7.63273 8.35865 7.37043 8.55205 7.17703C8.74544 6.98363 9.00775 6.87499 9.28125 6.87499C9.55475 6.87499 9.81706 6.98363 10.0105 7.17703C10.2039 7.37043 10.3125 7.63273 10.3125 7.90624V10.3125C10.3125 10.4948 10.3849 10.6697 10.5139 10.7986C10.6428 10.9276 10.8177 11 11 11C11.1823 11 11.3572 10.9276 11.4861 10.7986C11.6151 10.6697 11.6875 10.4948 11.6875 10.3125V7.90624C11.6875 7.63273 11.7962 7.37043 11.9895 7.17703C12.1829 6.98363 12.4452 6.87499 12.7188 6.87499C12.9923 6.87499 13.2546 6.98363 13.448 7.17703C13.6413 7.37043 13.75 7.63273 13.75 7.90624V10.3125C13.75 10.4948 13.8224 10.6697 13.9514 10.7986C14.0803 10.9276 14.2552 11 14.4375 11C14.6198 11 14.7947 10.9276 14.9236 10.7986C15.0526 10.6697 15.125 10.4948 15.125 10.3125V9.28124C15.125 9.00773 15.2337 8.74543 15.427 8.55203C15.6204 8.35863 15.8827 8.24999 16.1562 8.24999C16.4298 8.24999 16.6921 8.35863 16.8855 8.55203C17.0788 8.74543 17.1875 9.00773 17.1875 9.28124V13.0625Z" fill="#AEABB2"/>
</svg>
