<svg width="36" height="36" viewBox="0 0 36 36" fill="none" xmlns="http://www.w3.org/2000/svg">
<path d="M29.25 4.5H6.75C6.15326 4.5 5.58097 4.73705 5.15901 5.15901C4.73705 5.58097 4.5 6.15326 4.5 6.75V29.25C4.5 29.8467 4.73705 30.419 5.15901 30.841C5.58097 31.2629 6.15326 31.5 6.75 31.5H29.25C29.8467 31.5 30.419 31.2629 30.841 30.841C31.2629 30.419 31.5 29.8467 31.5 29.25V6.75C31.5 6.15326 31.2629 5.58097 30.841 5.15901C30.419 4.73705 29.8467 4.5 29.25 4.5ZM6.75 6.75H29.25V17.6316L25.778 14.1581C25.3561 13.7365 24.784 13.4996 24.1875 13.4996C23.591 13.4996 23.0189 13.7365 22.597 14.1581L7.50516 29.25H6.75V6.75ZM29.25 29.25H10.6875L24.1875 15.75L29.25 20.8125V29.25ZM13.5 16.875C14.1675 16.875 14.82 16.6771 15.375 16.3062C15.9301 15.9354 16.3626 15.4083 16.6181 14.7916C16.8735 14.1749 16.9404 13.4963 16.8102 12.8416C16.6799 12.1869 16.3585 11.5855 15.8865 11.1135C15.4145 10.6415 14.8131 10.3201 14.1584 10.1898C13.5037 10.0596 12.8251 10.1265 12.2084 10.3819C11.5917 10.6374 11.0646 11.0699 10.6938 11.625C10.3229 12.18 10.125 12.8325 10.125 13.5C10.125 14.3951 10.4806 15.2536 11.1135 15.8865C11.7464 16.5194 12.6049 16.875 13.5 16.875ZM13.5 12.375C13.7225 12.375 13.94 12.441 14.125 12.5646C14.31 12.6882 14.4542 12.8639 14.5394 13.0695C14.6245 13.275 14.6468 13.5012 14.6034 13.7195C14.56 13.9377 14.4528 14.1382 14.2955 14.2955C14.1382 14.4528 13.9377 14.56 13.7195 14.6034C13.5012 14.6468 13.275 14.6245 13.0695 14.5394C12.8639 14.4542 12.6882 14.31 12.5646 14.125C12.441 13.94 12.375 13.7225 12.375 13.5C12.375 13.2016 12.4935 12.9155 12.7045 12.7045C12.9155 12.4935 13.2016 12.375 13.5 12.375Z" fill="#AEABB2"/>
</svg>
