<svg width="26" height="26" viewBox="0 0 26 26" fill="none" xmlns="http://www.w3.org/2000/svg">
<path d="M17.875 16.25C17.333 16.2498 16.7965 16.3584 16.2972 16.5693C15.7979 16.7803 15.346 17.0892 14.9683 17.4779L10.2862 14.4686C10.6545 13.5242 10.6545 12.4759 10.2862 11.5314L14.9683 8.52213C15.6716 9.24253 16.6173 9.67614 17.6221 9.73888C18.6269 9.80162 19.6192 9.48902 20.4066 8.8617C21.1941 8.23438 21.7205 7.33702 21.8839 6.3436C22.0473 5.35018 21.836 4.33148 21.291 3.485C20.746 2.63852 19.906 2.02457 18.9341 1.76218C17.9621 1.49978 16.9273 1.60764 16.0304 2.06484C15.1334 2.52204 14.4381 3.29601 14.0794 4.23669C13.7207 5.17737 13.724 6.21775 14.0887 7.15611L9.40672 10.1654C8.84291 9.58658 8.1193 9.18903 7.32838 9.02359C6.53747 8.85814 5.71518 8.93231 4.96663 9.23662C4.21809 9.54093 3.5773 10.0615 3.12617 10.7319C2.67505 11.4023 2.43408 12.192 2.43408 13C2.43408 13.8081 2.67505 14.5977 3.12617 15.2681C3.5773 15.9385 4.21809 16.4591 4.96663 16.7634C5.71518 17.0677 6.53747 17.1419 7.32838 16.9765C8.1193 16.811 8.84291 16.4135 9.40672 15.8346L14.0887 18.8439C13.7751 19.6529 13.7287 20.541 13.9563 21.3783C14.1839 22.2156 14.6736 22.958 15.3537 23.4968C16.0338 24.0356 16.8685 24.3425 17.7356 24.3726C18.6028 24.4027 19.4568 24.1543 20.1725 23.664C20.8883 23.1736 21.4283 22.4669 21.7134 21.6475C21.9985 20.828 22.0138 19.9388 21.757 19.11C21.5001 18.2812 20.9847 17.5565 20.2862 17.0418C19.5876 16.5272 18.7427 16.2497 17.875 16.25ZM17.875 3.25002C18.3571 3.25002 18.8284 3.39298 19.2292 3.66081C19.63 3.92865 19.9425 4.30933 20.127 4.75473C20.3114 5.20012 20.3597 5.69022 20.2657 6.16305C20.1716 6.63588 19.9395 7.0702 19.5986 7.41109C19.2577 7.75198 18.8234 7.98413 18.3505 8.07818C17.8777 8.17223 17.3876 8.12396 16.9422 7.93948C16.4968 7.75499 16.1161 7.44257 15.8483 7.04172C15.5805 6.64088 15.4375 6.16961 15.4375 5.68752C15.4375 5.04105 15.6943 4.42107 16.1514 3.96395C16.6085 3.50683 17.2285 3.25002 17.875 3.25002ZM6.5 15.4375C6.01791 15.4375 5.54664 15.2946 5.1458 15.0267C4.74495 14.7589 4.43253 14.3782 4.24804 13.9328C4.06356 13.4874 4.01528 12.9973 4.10934 12.5245C4.20339 12.0517 4.43554 11.6173 4.77643 11.2764C5.11732 10.9356 5.55164 10.7034 6.02447 10.6094C6.4973 10.5153 6.9874 10.5636 7.43279 10.7481C7.87819 10.9326 8.25887 11.245 8.52671 11.6458C8.79454 12.0467 8.9375 12.5179 8.9375 13C8.9375 13.6465 8.68069 14.2665 8.22357 14.7236C7.76645 15.1807 7.14646 15.4375 6.5 15.4375ZM17.875 22.75C17.3929 22.75 16.9216 22.6071 16.5208 22.3392C16.12 22.0714 15.8075 21.6907 15.623 21.2453C15.4386 20.7999 15.3903 20.3098 15.4843 19.837C15.5784 19.3642 15.8105 18.9298 16.1514 18.5889C16.4923 18.2481 16.9266 18.0159 17.3995 17.9219C17.8723 17.8278 18.3624 17.8761 18.8078 18.0606C19.2532 18.2451 19.6339 18.5575 19.9017 18.9583C20.1695 19.3592 20.3125 19.8304 20.3125 20.3125C20.3125 20.959 20.0557 21.579 19.5986 22.0361C19.1415 22.4932 18.5215 22.75 17.875 22.75Z" fill="white"/>
</svg>
