<svg width="22" height="22" viewBox="0 0 22 22" fill="none" xmlns="http://www.w3.org/2000/svg">
<path d="M19.8445 18.2187C18.5357 15.956 16.5187 14.3335 14.1649 13.5644C15.3292 12.8712 16.2338 11.8151 16.7398 10.5581C17.2457 9.3011 17.3251 7.91277 16.9657 6.60631C16.6062 5.29985 15.8279 4.1475 14.7501 3.32622C13.6724 2.50494 12.3548 2.06015 10.9998 2.06015C9.64483 2.06015 8.32729 2.50494 7.24955 3.32622C6.1718 4.1475 5.39344 5.29985 5.034 6.60631C4.67457 7.91277 4.75392 9.3011 5.25989 10.5581C5.76585 11.8151 6.67045 12.8712 7.83476 13.5644C5.48093 14.3326 3.46398 15.9551 2.15515 18.2187C2.10715 18.297 2.07532 18.3841 2.06152 18.4748C2.04772 18.5656 2.05224 18.6582 2.07482 18.7472C2.09739 18.8362 2.13756 18.9198 2.19295 18.993C2.24835 19.0662 2.31784 19.1276 2.39734 19.1735C2.47684 19.2194 2.56473 19.2489 2.65583 19.2603C2.74692 19.2717 2.83938 19.2648 2.92774 19.2399C3.01611 19.215 3.09859 19.1726 3.17032 19.1153C3.24205 19.058 3.30157 18.9869 3.34538 18.9062C4.96445 16.1081 7.82616 14.4375 10.9998 14.4375C14.1735 14.4375 17.0352 16.1081 18.6543 18.9062C18.6981 18.9869 18.7576 19.058 18.8294 19.1153C18.9011 19.1726 18.9836 19.215 19.0719 19.2399C19.1603 19.2648 19.2527 19.2717 19.3438 19.2603C19.4349 19.2489 19.5228 19.2194 19.6023 19.1735C19.6818 19.1276 19.7513 19.0662 19.8067 18.993C19.8621 18.9198 19.9023 18.8362 19.9249 18.7472C19.9474 18.6582 19.9519 18.5656 19.9382 18.4748C19.9244 18.3841 19.8925 18.297 19.8445 18.2187ZM6.18734 8.24999C6.18734 7.29817 6.46958 6.36772 6.99839 5.57631C7.52719 4.7849 8.2788 4.16806 9.15817 3.80382C10.0375 3.43957 11.0052 3.34427 11.9387 3.52996C12.8722 3.71565 13.7297 4.174 14.4028 4.84704C15.0758 5.52008 15.5342 6.37758 15.7199 7.31112C15.9056 8.24465 15.8103 9.21228 15.446 10.0917C15.0818 10.971 14.4649 11.7226 13.6735 12.2514C12.8821 12.7802 11.9517 13.0625 10.9998 13.0625C9.7239 13.0611 8.50062 12.5537 7.59839 11.6514C6.69617 10.7492 6.1887 9.52592 6.18734 8.24999Z" fill="#AEABB2"/>
</svg>
